<svg width="612" height="132" viewBox="0 0 612 132" fill="none" xmlns="http://www.w3.org/2000/svg">
<path fill-rule="evenodd" clip-rule="evenodd" d="M510.242 25.8519V9.21387H491.126V25.8519H510.242ZM441.684 62.5499V94.9999H423.866V11.8099H441.684V44.7319C443.729 41.7425 446.345 39.4809 449.531 37.9469C452.717 36.4129 456.277 35.6459 460.21 35.6459C467.133 35.6459 472.285 37.6715 475.668 41.7229C479.051 45.7742 480.742 51.8905 480.742 60.0719V94.9999H462.924V60.8979C462.924 56.9645 462.196 54.0932 460.741 52.2839C459.286 50.4745 457.024 49.5699 453.956 49.5699C450.259 49.5699 447.289 50.7499 445.047 53.1099C442.805 55.4699 441.684 58.6165 441.684 62.5499ZM178.662 116.24V86.7399C180.393 89.6505 182.851 91.9122 186.037 93.5249C189.223 95.1375 192.783 95.9439 196.716 95.9439C201.751 95.9439 206.195 94.7245 210.05 92.2859C213.905 89.8472 216.914 86.3662 219.077 81.8429C221.24 77.3195 222.322 72.0685 222.322 66.0899C222.322 60.1112 221.24 54.8209 219.077 50.2189C216.914 45.6169 213.885 42.0375 209.991 39.4809C206.097 36.9242 201.672 35.6459 196.716 35.6459C192.704 35.6459 189.085 36.4915 185.86 38.1829C182.635 39.8742 180.157 42.2145 178.426 45.2039V37.0619H160.844V116.24H178.662ZM191.524 82.3739C187.355 82.3739 184.129 80.9382 181.848 78.0669C179.567 75.1955 178.426 71.1245 178.426 65.8539C178.426 60.5045 179.567 56.3942 181.848 53.5229C184.129 50.6515 187.355 49.2159 191.524 49.2159C195.693 49.2159 198.919 50.6909 201.2 53.6409C203.481 56.5909 204.622 60.7405 204.622 66.0899C204.622 71.3605 203.481 75.3922 201.2 78.1849C198.919 80.9775 195.693 82.3739 191.524 82.3739ZM259.138 93.4069C256.385 95.0982 253.159 95.9439 249.462 95.9439C245.529 95.9439 241.969 95.1572 238.783 93.5839C235.597 92.0105 233.08 89.8079 231.231 86.9759C229.382 84.1439 228.458 80.9972 228.458 77.5359C228.458 73.2879 229.54 69.9445 231.703 67.5059C233.866 65.0672 237.347 63.2972 242.146 62.1959C246.945 61.0945 253.513 60.5439 261.852 60.5439H264.92V58.4199C264.92 54.9585 264.173 52.5199 262.678 51.1039C261.183 49.6879 258.587 48.9799 254.89 48.9799C252.058 48.9799 248.911 49.4912 245.45 50.5139C241.989 51.5365 238.685 52.9525 235.538 54.7619L230.818 42.8439C234.122 40.7985 238.193 39.0875 243.031 37.7109C247.869 36.3342 252.373 35.6459 256.542 35.6459C265.195 35.6459 271.587 37.6912 275.717 41.7819C279.847 45.8725 281.912 52.2052 281.912 60.7799V94.9999H265.038V86.3859C263.858 89.3752 261.891 91.7155 259.138 93.4069ZM253.356 83.6719C251.153 83.6719 249.324 82.9639 247.869 81.5479C246.414 80.1319 245.686 78.3619 245.686 76.2379C245.686 73.5632 246.964 71.7145 249.521 70.6919C252.078 69.6692 256.542 69.1579 262.914 69.1579H264.92V71.1639C264.92 74.8612 263.858 77.8702 261.734 80.1909C259.61 82.5115 256.817 83.6719 253.356 83.6719ZM343.98 109.986C338.631 114.785 330.725 117.184 320.262 117.184C315.07 117.184 310.094 116.555 305.335 115.296C300.576 114.037 296.387 112.267 292.768 109.986L297.488 97.7139C304.961 101.805 312.395 103.85 319.79 103.85C329.545 103.85 334.422 99.2479 334.422 90.0439V83.6719C332.77 86.6612 330.292 89.0212 326.988 90.7519C323.684 92.4825 319.987 93.3479 315.896 93.3479C310.861 93.3479 306.397 92.1679 302.503 89.8079C298.609 87.4479 295.561 84.0849 293.358 79.7189C291.155 75.3529 290.054 70.2985 290.054 64.5559C290.054 58.8132 291.155 53.7589 293.358 49.3929C295.561 45.0269 298.609 41.6442 302.503 39.2449C306.397 36.8455 310.861 35.6459 315.896 35.6459C319.908 35.6459 323.546 36.4915 326.811 38.1829C330.076 39.8742 332.573 42.2145 334.304 45.2039V37.0619H352.004V88.7459C352.004 98.1072 349.329 105.187 343.98 109.986ZM321.088 79.7779C316.919 79.7779 313.654 78.4209 311.294 75.7069C308.934 72.9929 307.754 69.2759 307.754 64.5559C307.754 59.7572 308.934 56.0009 311.294 53.2869C313.654 50.5729 316.919 49.2159 321.088 49.2159C325.257 49.2159 328.502 50.5729 330.823 53.2869C333.144 56.0009 334.304 59.7572 334.304 64.5559C334.304 69.3545 333.144 73.0912 330.823 75.7659C328.502 78.4405 325.257 79.7779 321.088 79.7779ZM404.219 94.0559C400.168 95.3145 396.097 95.9439 392.006 95.9439C382.251 95.9439 374.562 93.2495 368.937 87.8609C363.312 82.4722 360.5 75.1365 360.5 65.8539C360.5 59.9539 361.719 54.7225 364.158 50.1599C366.597 45.5972 369.979 42.0375 374.306 39.4809C378.633 36.9242 383.549 35.6459 389.056 35.6459C397.159 35.6459 403.59 38.2812 408.349 43.5519C413.108 48.8225 415.488 55.9812 415.488 65.0279V69.3939H377.728C378.279 74.0352 379.793 77.3982 382.271 79.4829C384.749 81.5675 388.269 82.6099 392.832 82.6099C395.821 82.6099 398.791 82.1182 401.741 81.1349C404.691 80.1515 407.385 78.7552 409.824 76.9459L414.544 88.8639C411.712 91.0665 408.27 92.7972 404.219 94.0559ZM400.502 60.5439H377.728C378.2 56.4532 379.439 53.3262 381.445 51.1629C383.451 48.9995 386.145 47.9179 389.528 47.9179C392.911 47.9179 395.526 48.9799 397.375 51.1039C399.224 53.2279 400.266 56.3745 400.502 60.5439ZM509.534 37.0619V94.9999H491.716V37.0619H509.534ZM550.834 95.9439C553.115 95.9439 555.397 95.7865 557.678 95.4719L558.622 82.4919C556.655 82.7279 554.767 82.8459 552.958 82.8459C546.507 82.8459 543.282 79.3845 543.282 72.4619V50.3959H557.796V37.0619H543.282V20.0699H525.464V37.0619H514.49V50.3959H525.464V72.5799C525.464 80.4465 527.49 86.3072 531.541 90.1619C535.592 94.0165 542.023 95.9439 550.834 95.9439ZM604.819 91.1649C600.374 94.3509 594.258 95.9439 586.47 95.9439C581.121 95.9439 576.224 95.3342 571.779 94.1149C567.334 92.8955 563.499 91.1452 560.274 88.8639L564.994 76.5919C568.141 78.7159 571.602 80.3679 575.378 81.5479C579.154 82.7279 582.969 83.3179 586.824 83.3179C589.577 83.3179 591.721 82.8655 593.255 81.9609C594.789 81.0562 595.556 79.8172 595.556 78.2439C595.556 76.8279 595.025 75.7265 593.963 74.9399C592.901 74.1532 590.915 73.4452 588.004 72.8159L578.564 70.6919C572.979 69.4332 568.868 67.4862 566.233 64.8509C563.598 62.2155 562.28 58.6165 562.28 54.0539C562.28 50.4352 563.322 47.2492 565.407 44.4959C567.492 41.7425 570.442 39.5792 574.257 38.0059C578.072 36.4325 582.419 35.6459 587.296 35.6459C591.465 35.6459 595.517 36.2752 599.45 37.5339C603.383 38.7925 606.923 40.5625 610.07 42.8439L605.35 54.6439C599.214 50.3959 593.157 48.2719 587.178 48.2719C584.425 48.2719 582.261 48.7439 580.688 49.6879C579.115 50.6319 578.328 51.9692 578.328 53.6999C578.328 54.9585 578.8 55.9419 579.744 56.6499C580.688 57.3579 582.34 58.0265 584.7 58.6559L594.494 60.8979C600.394 62.2352 604.701 64.2609 607.415 66.9749C610.129 69.6889 611.486 73.3665 611.486 78.0079C611.486 83.5932 609.264 87.9789 604.819 91.1649Z" fill="#515B67"/>
<path fill-rule="evenodd" clip-rule="evenodd" d="M136.063 23.9994L107.449 0L68 23.9777H80.3585L63.809 95.665H92.5943C100.975 95.665 108.247 89.8806 110.133 81.7144L123.462 23.9822L136.063 23.9994ZM43.104 131.999L65.267 35.999H22.163L0 131.999H43.104Z" fill="url(#paint0_linear_8_317)"/>
<defs>
<linearGradient id="paint0_linear_8_317" x1="68.0314" y1="0" x2="68.0314" y2="131.999" gradientUnits="userSpaceOnUse">
<stop stop-color="#52C41A"/>
<stop offset="1" stop-color="#13A653"/>
</linearGradient>
</defs>
</svg>
